<?xml version="1.0" standalone="no"?>
<!DOCTYPE svg PUBLIC "-//W3C//DTD SVG 20010904//EN"
 "http://www.w3.org/TR/2001/REC-SVG-20010904/DTD/svg10.dtd">
<svg version="1.0" xmlns="http://www.w3.org/2000/svg"
 width="700.000000pt" height="700.000000pt" viewBox="0 0 700.000000 700.000000"
 preserveAspectRatio="xMidYMid meet">
<metadata>
Created by potrace 1.11, written by Peter Selinger 2001-2013
</metadata>
<g transform="translate(0.000000,700.000000) scale(0.100000,-0.100000)"
fill="#000000" stroke="none">
<path d="M3220 6914 c-178 -21 -307 -40 -426 -65 -1283 -264 -2321 -1274
-2624 -2552 -72 -305 -95 -536 -87 -880 7 -317 35 -519 107 -792 272 -1030
1016 -1879 2005 -2290 299 -124 666 -214 1000 -245 141 -13 469 -13 610 0
1418 131 2600 1112 2991 2484 39 136 75 314 101 491 25 172 25 697 0 874 -131
918 -575 1695 -1287 2257 -401 315 -907 551 -1405 654 -243 51 -358 62 -660
65 -159 2 -306 1 -325 -1z m455 -604 c839 -57 1584 -460 2082 -1127 559 -749
709 -1721 403 -2608 -127 -366 -329 -700 -609 -1005 l-60 -65 -251 250 c-137
137 -246 251 -240 253 6 2 10 144 10 403 l0 399 -412 0 -413 0 -1337 1337
c-736 736 -1338 1341 -1338 1345 0 11 190 177 292 255 432 327 961 526 1503
562 174 12 204 12 370 1z m-1620 -2480 l1020 -1020 -943 0 -942 0 0 -400 0
-400 1343 0 1342 0 490 -490 c389 -389 487 -492 475 -500 -8 -5 -78 -39 -155
-74 -895 -412 -1927 -333 -2744 209 -436 290 -810 732 -1016 1202 -304 695
-320 1479 -43 2183 37 95 139 310 147 310 3 0 465 -459 1026 -1020z"/>
<path d="M3645 6109 c-186 -64 -348 -263 -412 -507 -36 -138 -43 -348 -15
-482 58 -282 209 -479 440 -575 l89 -37 6 -141 c6 -174 26 -267 77 -374 43
-88 135 -192 221 -251 l47 -31 368 -11 c203 -5 392 -14 419 -20 92 -19 164
-89 201 -195 13 -39 18 -101 23 -280 3 -126 10 -236 14 -242 6 -9 38 -13 103
-13 l94 0 0 219 c0 329 -24 449 -116 584 -56 81 -109 128 -189 168 -74 36
-162 45 -575 57 -313 10 -329 13 -386 89 -54 72 -76 144 -82 270 -4 99 -2 121
22 202 29 103 31 128 14 166 -16 36 -66 59 -168 80 -204 41 -300 104 -364 240
-59 125 -80 302 -52 435 42 199 195 390 314 390 49 0 62 28 62 137 0 122 -8
143 -57 143 -21 -1 -65 -10 -98 -21z"/>
<path d="M4023 5863 c-22 -4 -23 -8 -23 -134 0 -120 1 -129 19 -129 40 0 150
-42 207 -78 170 -111 254 -283 254 -520 0 -127 -24 -248 -75 -379 -30 -75 -45
-130 -45 -160 0 -102 27 -114 290 -124 264 -11 331 -28 454 -117 113 -83 230
-274 282 -462 25 -90 26 -112 34 -444 6 -273 11 -351 22 -357 7 -5 56 -9 110
-9 l96 0 -4 138 c-2 75 -6 232 -8 347 -4 164 -9 233 -26 314 -71 341 -230 603
-451 748 -111 72 -214 103 -371 112 -70 4 -130 10 -134 13 -3 4 5 53 17 110
33 143 33 380 1 511 -47 190 -130 336 -256 455 -124 115 -293 186 -393 165z"/>
<path d="M5110 2410 l0 -400 105 0 105 0 0 400 0 400 -105 0 -105 0 0 -400z"/>
<path d="M5440 2410 l0 -400 100 0 100 0 0 400 0 400 -100 0 -100 0 0 -400z"/>
</g>
</svg>
